<mxfile host="Electron" agent="Mozilla/5.0 (Windows NT 10.0; Win64; x64) AppleWebKit/537.36 (KHTML, like Gecko) draw.io/25.0.2 Chrome/128.0.6613.186 Electron/32.2.5 Safari/537.36" version="25.0.2">
  <diagram name="Page-1" id="52a04d89-c75d-2922-d76d-85b35f80e030">
    <mxGraphModel dx="1050" dy="629" grid="0" gridSize="10" guides="1" tooltips="1" connect="1" arrows="1" fold="1" page="0" pageScale="1" pageWidth="1100" pageHeight="850" background="none" math="0" shadow="0">
      <root>
        <mxCell id="0" />
        <mxCell id="1" parent="0" />
        <mxCell id="oAIWOGW1Lzmyr2TzlzTb-1" value="&lt;font style=&quot;font-size: 14px;&quot; face=&quot;Times New Roman&quot;&gt;Выполнение работы&lt;/font&gt;" style="rounded=0;whiteSpace=wrap;html=1;" parent="1" vertex="1">
          <mxGeometry x="201" y="281" width="150" height="80" as="geometry" />
        </mxCell>
        <mxCell id="oAIWOGW1Lzmyr2TzlzTb-2" value="" style="endArrow=classic;html=1;rounded=0;entryX=0.5;entryY=1;entryDx=0;entryDy=0;" parent="1" target="oAIWOGW1Lzmyr2TzlzTb-1" edge="1">
          <mxGeometry width="50" height="50" relative="1" as="geometry">
            <mxPoint x="276" y="457" as="sourcePoint" />
            <mxPoint x="290" y="415" as="targetPoint" />
          </mxGeometry>
        </mxCell>
        <mxCell id="oAIWOGW1Lzmyr2TzlzTb-3" value="&lt;font style=&quot;font-size: 14px;&quot; face=&quot;Times New Roman&quot;&gt;Сотрудники&lt;/font&gt;" style="text;html=1;align=center;verticalAlign=middle;whiteSpace=wrap;rounded=0;" parent="1" vertex="1">
          <mxGeometry x="276" y="395" width="81" height="28" as="geometry" />
        </mxCell>
        <mxCell id="oAIWOGW1Lzmyr2TzlzTb-4" value="" style="endArrow=classic;html=1;rounded=0;entryX=0;entryY=0.25;entryDx=0;entryDy=0;" parent="1" target="oAIWOGW1Lzmyr2TzlzTb-1" edge="1">
          <mxGeometry width="50" height="50" relative="1" as="geometry">
            <mxPoint x="89" y="301" as="sourcePoint" />
            <mxPoint x="153" y="305" as="targetPoint" />
          </mxGeometry>
        </mxCell>
        <mxCell id="oAIWOGW1Lzmyr2TzlzTb-5" value="" style="endArrow=classic;html=1;rounded=0;entryX=0;entryY=0.75;entryDx=0;entryDy=0;" parent="1" target="oAIWOGW1Lzmyr2TzlzTb-1" edge="1">
          <mxGeometry width="50" height="50" relative="1" as="geometry">
            <mxPoint x="89" y="341" as="sourcePoint" />
            <mxPoint x="201" y="345" as="targetPoint" />
          </mxGeometry>
        </mxCell>
        <mxCell id="oAIWOGW1Lzmyr2TzlzTb-6" value="&lt;font style=&quot;font-size: 14px;&quot; face=&quot;Times New Roman&quot;&gt;План&lt;/font&gt;" style="text;html=1;align=center;verticalAlign=middle;whiteSpace=wrap;rounded=0;" parent="1" vertex="1">
          <mxGeometry x="98" y="274" width="85" height="34" as="geometry" />
        </mxCell>
        <mxCell id="oAIWOGW1Lzmyr2TzlzTb-7" value="&lt;font style=&quot;font-size: 14px;&quot; face=&quot;Times New Roman&quot;&gt;Группы&lt;/font&gt;" style="text;html=1;align=center;verticalAlign=middle;whiteSpace=wrap;rounded=0;" parent="1" vertex="1">
          <mxGeometry x="98" y="314" width="85" height="34" as="geometry" />
        </mxCell>
        <mxCell id="oAIWOGW1Lzmyr2TzlzTb-9" value="" style="endArrow=classic;html=1;rounded=0;entryX=0.5;entryY=0;entryDx=0;entryDy=0;" parent="1" target="oAIWOGW1Lzmyr2TzlzTb-1" edge="1">
          <mxGeometry width="50" height="50" relative="1" as="geometry">
            <mxPoint x="276" y="177" as="sourcePoint" />
            <mxPoint x="273" y="275" as="targetPoint" />
          </mxGeometry>
        </mxCell>
        <mxCell id="oAIWOGW1Lzmyr2TzlzTb-11" value="&lt;font style=&quot;font-size: 14px;&quot; face=&quot;Times New Roman&quot;&gt;Трудовой договор&lt;/font&gt;" style="text;html=1;align=center;verticalAlign=middle;whiteSpace=wrap;rounded=0;" parent="1" vertex="1">
          <mxGeometry x="266" y="218" width="85" height="34" as="geometry" />
        </mxCell>
        <mxCell id="oAIWOGW1Lzmyr2TzlzTb-13" value="&lt;font style=&quot;font-size: 14px;&quot; face=&quot;Times New Roman&quot;&gt;Выпуск группы&lt;/font&gt;" style="text;html=1;align=center;verticalAlign=middle;whiteSpace=wrap;rounded=0;" parent="1" vertex="1">
          <mxGeometry x="357" y="264" width="85" height="34" as="geometry" />
        </mxCell>
        <mxCell id="oAIWOGW1Lzmyr2TzlzTb-14" value="" style="endArrow=classic;html=1;rounded=0;exitX=1;exitY=0.25;exitDx=0;exitDy=0;" parent="1" source="oAIWOGW1Lzmyr2TzlzTb-1" edge="1">
          <mxGeometry width="50" height="50" relative="1" as="geometry">
            <mxPoint x="354" y="303" as="sourcePoint" />
            <mxPoint x="464" y="301" as="targetPoint" />
          </mxGeometry>
        </mxCell>
        <mxCell id="oAIWOGW1Lzmyr2TzlzTb-15" value="" style="endArrow=classic;html=1;rounded=0;exitX=1;exitY=0.75;exitDx=0;exitDy=0;" parent="1" source="oAIWOGW1Lzmyr2TzlzTb-1" edge="1">
          <mxGeometry width="50" height="50" relative="1" as="geometry">
            <mxPoint x="354" y="340" as="sourcePoint" />
            <mxPoint x="465" y="341" as="targetPoint" />
          </mxGeometry>
        </mxCell>
        <mxCell id="oAIWOGW1Lzmyr2TzlzTb-16" value="&lt;font style=&quot;font-size: 14px;&quot; face=&quot;Times New Roman&quot;&gt;Получение зарплаты сотрудниками&amp;nbsp;&lt;/font&gt;" style="text;html=1;align=center;verticalAlign=middle;whiteSpace=wrap;rounded=0;" parent="1" vertex="1">
          <mxGeometry x="351" y="305" width="126" height="38" as="geometry" />
        </mxCell>
      </root>
    </mxGraphModel>
  </diagram>
</mxfile>
